<svg width="1200" height="630" viewBox="0 0 1200 630" fill="none" xmlns="http://www.w3.org/2000/svg">
  <rect width="1200" height="630" fill="#0f172a"/>

  <!-- Gradient blobs -->
  <ellipse cx="100" cy="300" rx="150" ry="200" fill="url(#grad1)" opacity="0.2"/>
  <ellipse cx="1100" cy="350" rx="180" ry="200" fill="url(#grad2)" opacity="0.2"/>

  <!-- Spreadsheet (Left) -->
  <g transform="translate(100, 120)">
    <rect x="0" y="0" width="350" height="280" rx="16" fill="#1e293b" stroke="#ef4444" stroke-width="2"/>

    <!-- Header -->
    <rect x="0" y="0" width="350" height="45" rx="16" fill="#22c55e"/>
    <rect x="0" y="20" width="350" height="25" fill="#22c55e"/>
    <text x="20" y="30" fill="white" font-family="system-ui" font-size="14" font-weight="700">📊 leads_master_final_v3.xlsx</text>

    <!-- Column headers -->
    <rect x="0" y="45" width="350" height="30" fill="#334155"/>
    <text x="20" y="65" fill="#94a3b8" font-family="system-ui" font-size="11" font-weight="600">Name</text>
    <text x="100" y="65" fill="#94a3b8" font-family="system-ui" font-size="11" font-weight="600">Email</text>
    <text x="200" y="65" fill="#94a3b8" font-family="system-ui" font-size="11" font-weight="600">Phone</text>
    <text x="280" y="65" fill="#94a3b8" font-family="system-ui" font-size="11" font-weight="600">Status</text>

    <!-- Rows -->
    <g transform="translate(0, 75)">
      <line x1="0" y1="30" x2="350" y2="30" stroke="#334155" stroke-width="1"/>
      <line x1="0" y1="60" x2="350" y2="60" stroke="#334155" stroke-width="1"/>
      <line x1="0" y1="90" x2="350" y2="90" stroke="#334155" stroke-width="1"/>
      <line x1="0" y1="120" x2="350" y2="120" stroke="#334155" stroke-width="1"/>
      <line x1="0" y1="150" x2="350" y2="150" stroke="#334155" stroke-width="1"/>

      <text x="20" y="20" fill="#64748b" font-family="system-ui" font-size="11">John D.</text>
      <text x="100" y="20" fill="#64748b" font-family="system-ui" font-size="11">john@...</text>
      <text x="200" y="20" fill="#64748b" font-family="system-ui" font-size="11">555-0123</text>
      <text x="280" y="20" fill="#f59e0b" font-family="system-ui" font-size="11">Hot?</text>

      <text x="20" y="50" fill="#64748b" font-family="system-ui" font-size="11">Sarah M.</text>
      <text x="100" y="50" fill="#64748b" font-family="system-ui" font-size="11">sarah@...</text>
      <text x="200" y="50" fill="#64748b" font-family="system-ui" font-size="11">555-0456</text>
      <text x="280" y="50" fill="#ef4444" font-family="system-ui" font-size="11">Cold</text>

      <text x="20" y="80" fill="#64748b" font-family="system-ui" font-size="11">Mike R.</text>
      <text x="100" y="80" fill="#64748b" font-family="system-ui" font-size="11">mike@...</text>
      <text x="200" y="80" fill="#64748b" font-family="system-ui" font-size="11">???</text>
      <text x="280" y="80" fill="#64748b" font-family="system-ui" font-size="11">—</text>

      <text x="20" y="110" fill="#64748b" font-family="system-ui" font-size="11">Lisa K.</text>
      <text x="100" y="110" fill="#ef4444" font-family="system-ui" font-size="11">#REF!</text>
      <text x="200" y="110" fill="#64748b" font-family="system-ui" font-size="11">555-0789</text>
      <text x="280" y="110" fill="#64748b" font-family="system-ui" font-size="11">Maybe</text>

      <text x="20" y="140" fill="#64748b" font-family="system-ui" font-size="11">Tom B.</text>
      <text x="100" y="140" fill="#64748b" font-family="system-ui" font-size="11">tom@...</text>
      <text x="200" y="140" fill="#64748b" font-family="system-ui" font-size="11">555-0321</text>
      <text x="280" y="140" fill="#22c55e" font-family="system-ui" font-size="11">Paid!</text>
    </g>

    <!-- Chaos indicators -->
    <text x="175" y="260" fill="#ef4444" font-family="system-ui" font-size="12" text-anchor="middle">❌ Missing data, no automation</text>
  </g>

  <!-- Arrow -->
  <g transform="translate(480, 220)">
    <rect x="0" y="0" width="160" height="60" rx="30" fill="#10b981"/>
    <text x="80" y="35" fill="white" font-family="system-ui" font-size="16" font-weight="700" text-anchor="middle">Migrate →</text>
  </g>

  <!-- HubSpot CRM (Right) -->
  <g transform="translate(680, 120)">
    <rect x="0" y="0" width="400" height="280" rx="16" fill="#1e293b" stroke="#10b981" stroke-width="2"/>

    <!-- Header -->
    <rect x="0" y="0" width="400" height="45" rx="16" fill="#ff7a59"/>
    <rect x="0" y="20" width="400" height="25" fill="#ff7a59"/>
    <text x="20" y="30" fill="white" font-family="system-ui" font-size="14" font-weight="700">🚀 HubSpot CRM</text>

    <!-- Pipeline view -->
    <g transform="translate(20, 60)">
      <text x="0" y="0" fill="#94a3b8" font-family="system-ui" font-size="12" font-weight="600">Sales Pipeline</text>

      <!-- Pipeline stages -->
      <g transform="translate(0, 20)">
        <!-- New -->
        <rect x="0" y="0" width="85" height="160" rx="8" fill="#334155"/>
        <rect x="0" y="0" width="85" height="25" rx="8" fill="#3b82f6"/>
        <rect x="0" y="15" width="85" height="10" fill="#3b82f6"/>
        <text x="42" y="17" fill="white" font-family="system-ui" font-size="10" font-weight="600" text-anchor="middle">NEW (3)</text>
        <rect x="8" y="35" width="69" height="35" rx="4" fill="#1e293b"/>
        <text x="42" y="55" fill="#94a3b8" font-family="system-ui" font-size="10" text-anchor="middle">John D.</text>
        <rect x="8" y="78" width="69" height="35" rx="4" fill="#1e293b"/>
        <text x="42" y="98" fill="#94a3b8" font-family="system-ui" font-size="10" text-anchor="middle">Sarah M.</text>

        <!-- Contacted -->
        <rect x="95" y="0" width="85" height="160" rx="8" fill="#334155"/>
        <rect x="95" y="0" width="85" height="25" rx="8" fill="#f59e0b"/>
        <rect x="95" y="15" width="85" height="10" fill="#f59e0b"/>
        <text x="137" y="17" fill="white" font-family="system-ui" font-size="10" font-weight="600" text-anchor="middle">CONTACTED</text>
        <rect x="103" y="35" width="69" height="35" rx="4" fill="#1e293b"/>
        <text x="137" y="55" fill="#94a3b8" font-family="system-ui" font-size="10" text-anchor="middle">Mike R.</text>

        <!-- Qualified -->
        <rect x="190" y="0" width="85" height="160" rx="8" fill="#334155"/>
        <rect x="190" y="0" width="85" height="25" rx="8" fill="#8b5cf6"/>
        <rect x="190" y="15" width="85" height="10" fill="#8b5cf6"/>
        <text x="232" y="17" fill="white" font-family="system-ui" font-size="10" font-weight="600" text-anchor="middle">QUALIFIED</text>
        <rect x="198" y="35" width="69" height="35" rx="4" fill="#1e293b"/>
        <text x="232" y="55" fill="#94a3b8" font-family="system-ui" font-size="10" text-anchor="middle">Lisa K.</text>

        <!-- Won -->
        <rect x="285" y="0" width="85" height="160" rx="8" fill="#334155"/>
        <rect x="285" y="0" width="85" height="25" rx="8" fill="#10b981"/>
        <rect x="285" y="15" width="85" height="10" fill="#10b981"/>
        <text x="327" y="17" fill="white" font-family="system-ui" font-size="10" font-weight="600" text-anchor="middle">WON 🎉</text>
        <rect x="293" y="35" width="69" height="35" rx="4" fill="#1e293b"/>
        <text x="327" y="55" fill="#94a3b8" font-family="system-ui" font-size="10" text-anchor="middle">Tom B.</text>
      </g>
    </g>

    <!-- Benefits -->
    <text x="200" y="260" fill="#10b981" font-family="system-ui" font-size="12" text-anchor="middle">✅ Automated workflows, clear pipeline</text>
  </g>

  <!-- Title -->
  <text x="100" y="520" fill="white" font-family="system-ui" font-size="36" font-weight="700">Spreadsheet to HubSpot</text>
  <text x="100" y="560" fill="#94a3b8" font-family="system-ui" font-size="20">Migrate your messy leads to a real CRM</text>

  <!-- Stats -->
  <g transform="translate(900, 520)">
    <text x="0" y="0" fill="#10b981" font-family="system-ui" font-size="48" font-weight="700">2hr</text>
    <text x="0" y="30" fill="#94a3b8" font-family="system-ui" font-size="16">migration time</text>
  </g>

  <defs>
    <radialGradient id="grad1" cx="0.5" cy="0.5" r="0.5">
      <stop offset="0%" stop-color="#ef4444"/>
      <stop offset="100%" stop-color="#ef4444" stop-opacity="0"/>
    </radialGradient>
    <radialGradient id="grad2" cx="0.5" cy="0.5" r="0.5">
      <stop offset="0%" stop-color="#10b981"/>
      <stop offset="100%" stop-color="#10b981" stop-opacity="0"/>
    </radialGradient>
  </defs>
</svg>
