<svg width="1200" height="630" viewBox="0 0 1200 630" fill="none" xmlns="http://www.w3.org/2000/svg">
  <rect width="1200" height="630" fill="#0f172a"/>

  <ellipse cx="600" cy="315" rx="400" ry="300" fill="url(#grad1)" opacity="0.15"/>

  <g transform="translate(200, 60)">
    <rect x="0" y="0" width="280" height="480" rx="40" fill="#1e293b" stroke="#334155" stroke-width="3"/>
    <rect x="10" y="10" width="260" height="460" rx="35" fill="#0f172a"/>

    <rect x="100" y="20" width="80" height="8" rx="4" fill="#334155"/>

    <rect x="30" y="60" width="220" height="120" rx="12" fill="#334155"/>
    <text x="140" y="130" text-anchor="middle" fill="#64748b" font-family="system-ui" font-size="14">Website Header</text>

    <rect x="30" y="200" width="220" height="60" rx="8" fill="#334155"/>
    <text x="140" y="238" text-anchor="middle" fill="#64748b" font-family="system-ui" font-size="12">Content Area</text>

    <rect x="30" y="280" width="220" height="60" rx="8" fill="#334155"/>
    <text x="140" y="318" text-anchor="middle" fill="#64748b" font-family="system-ui" font-size="12">More Content</text>

    <rect x="50" y="380" width="180" height="60" rx="30" fill="#ef4444" opacity="0.3" stroke="#ef4444" stroke-width="2"/>
    <text x="140" y="418" text-anchor="middle" fill="#ef4444" font-family="system-ui" font-size="14" font-weight="600">Book Now</text>

    <text x="140" y="460" text-anchor="middle" fill="#ef4444" font-family="system-ui" font-size="10">TOO FAR TO REACH</text>
  </g>

  <g transform="translate(720, 60)">
    <rect x="0" y="0" width="280" height="480" rx="40" fill="#1e293b" stroke="#10b981" stroke-width="3"/>
    <rect x="10" y="10" width="260" height="460" rx="35" fill="#0f172a"/>

    <rect x="100" y="20" width="80" height="8" rx="4" fill="#334155"/>

    <rect x="30" y="60" width="220" height="120" rx="12" fill="#334155"/>
    <text x="140" y="130" text-anchor="middle" fill="#64748b" font-family="system-ui" font-size="14">Website Header</text>

    <rect x="30" y="200" width="220" height="60" rx="8" fill="#334155"/>
    <text x="140" y="238" text-anchor="middle" fill="#64748b" font-family="system-ui" font-size="12">Content Area</text>

    <rect x="30" y="280" width="220" height="60" rx="8" fill="#334155"/>
    <text x="140" y="318" text-anchor="middle" fill="#64748b" font-family="system-ui" font-size="12">More Content</text>

    <rect x="140" y="360" width="120" height="100" rx="24" fill="#10b981" stroke="#10b981" stroke-width="2"/>
    <text x="200" y="418" text-anchor="middle" fill="white" font-family="system-ui" font-size="14" font-weight="700">Book</text>
    <text x="200" y="438" text-anchor="middle" fill="white" font-family="system-ui" font-size="14" font-weight="700">Now</text>

    <ellipse cx="200" cy="500" rx="60" ry="30" fill="#10b981" opacity="0.3"/>
    <text x="200" y="506" text-anchor="middle" fill="#10b981" font-family="system-ui" font-size="10">THUMB ZONE</text>
  </g>

  <g transform="translate(540, 220)">
    <path d="M0 50 L80 50" stroke="#94a3b8" stroke-width="2" stroke-dasharray="6 4"/>
    <polygon points="80,45 90,50 80,55" fill="#94a3b8"/>
  </g>

  <text x="100" y="570" fill="white" font-family="system-ui" font-size="36" font-weight="700">70% of Traffic is Mobile</text>
  <text x="100" y="600" fill="#94a3b8" font-family="system-ui" font-size="20">Can they book in one thumb tap?</text>

  <defs>
    <radialGradient id="grad1" cx="0.5" cy="0.5" r="0.5">
      <stop offset="0%" stop-color="#10b981"/>
      <stop offset="100%" stop-color="#10b981" stop-opacity="0"/>
    </radialGradient>
  </defs>
</svg>
