<svg width="1200" height="630" viewBox="0 0 1200 630" fill="none" xmlns="http://www.w3.org/2000/svg">
  <rect width="1200" height="630" fill="#0f172a"/>

  <ellipse cx="300" cy="300" rx="280" ry="250" fill="url(#grad1)" opacity="0.2"/>
  <ellipse cx="900" cy="350" rx="300" ry="250" fill="url(#grad2)" opacity="0.2"/>

  <g transform="translate(100, 100)">
    <rect x="0" y="0" width="450" height="320" rx="24" fill="#1e293b" stroke="#334155" stroke-width="2"/>

    <text x="40" y="50" fill="#ef4444" font-family="system-ui" font-size="14" font-weight="700">SLOW RESPONSE</text>

    <text x="40" y="100" fill="white" font-family="system-ui" font-size="48" font-weight="700">5 min+</text>

    <rect x="40" y="130" width="370" height="60" rx="8" fill="#ef4444" opacity="0.1" stroke="#ef4444" stroke-width="1"/>
    <text x="225" y="168" text-anchor="middle" fill="#ef4444" font-family="system-ui" font-size="20" font-weight="600">Lead goes cold</text>

    <rect x="40" y="210" width="370" height="80" rx="8" fill="#334155"/>
    <text x="60" y="245" fill="#94a3b8" font-family="system-ui" font-size="14">Conversion Rate:</text>
    <text x="60" y="275" fill="#ef4444" font-family="system-ui" font-size="28" font-weight="700">1%</text>
  </g>

  <g transform="translate(650, 100)">
    <rect x="0" y="0" width="450" height="320" rx="24" fill="#1e293b" stroke="#10b981" stroke-width="2"/>

    <text x="40" y="50" fill="#10b981" font-family="system-ui" font-size="14" font-weight="700">INSTANT RESPONSE</text>

    <text x="40" y="100" fill="white" font-family="system-ui" font-size="48" font-weight="700">60 sec</text>

    <rect x="40" y="130" width="370" height="60" rx="8" fill="#10b981" opacity="0.1" stroke="#10b981" stroke-width="1"/>
    <text x="225" y="168" text-anchor="middle" fill="#10b981" font-family="system-ui" font-size="20" font-weight="600">Lead converts</text>

    <rect x="40" y="210" width="370" height="80" rx="8" fill="#334155"/>
    <text x="60" y="245" fill="#94a3b8" font-family="system-ui" font-size="14">Conversion Rate:</text>
    <text x="60" y="275" fill="#10b981" font-family="system-ui" font-size="28" font-weight="700">100x higher</text>
  </g>

  <g transform="translate(560, 250)">
    <circle cx="40" cy="40" r="35" fill="#0f172a" stroke="#10b981" stroke-width="3"/>
    <text x="40" y="48" text-anchor="middle" fill="#10b981" font-family="system-ui" font-size="24" font-weight="700">vs</text>
  </g>

  <text x="100" y="520" fill="white" font-family="system-ui" font-size="36" font-weight="700">Why 5 Minutes is Too Slow</text>
  <text x="100" y="560" fill="#94a3b8" font-family="system-ui" font-size="20">The speed-to-lead data that changes everything</text>

  <defs>
    <radialGradient id="grad1" cx="0.5" cy="0.5" r="0.5">
      <stop offset="0%" stop-color="#ef4444"/>
      <stop offset="100%" stop-color="#ef4444" stop-opacity="0"/>
    </radialGradient>
    <radialGradient id="grad2" cx="0.5" cy="0.5" r="0.5">
      <stop offset="0%" stop-color="#10b981"/>
      <stop offset="100%" stop-color="#10b981" stop-opacity="0"/>
    </radialGradient>
  </defs>
</svg>
