<svg width="1200" height="630" viewBox="0 0 1200 630" fill="none" xmlns="http://www.w3.org/2000/svg">
  <rect width="1200" height="630" fill="#0f172a"/>

  <ellipse cx="200" cy="200" rx="220" ry="180" fill="url(#grad1)" opacity="0.25"/>
  <ellipse cx="1000" cy="400" rx="250" ry="200" fill="url(#grad2)" opacity="0.2"/>

  <g transform="translate(100, 80)">
    <rect x="0" y="60" width="160" height="100" rx="12" fill="#ff6b35" opacity="0.9"/>
    <text x="80" y="120" text-anchor="middle" fill="white" font-family="system-ui" font-size="18" font-weight="700">Form</text>
    <text x="80" y="145" text-anchor="middle" fill="white" font-family="system-ui" font-size="14" opacity="0.8">Submitted</text>

    <path d="M160 110 L220 110" stroke="#ff6b35" stroke-width="3" stroke-dasharray="8 4"/>
    <circle cx="220" cy="110" r="8" fill="#ff6b35"/>

    <rect x="240" y="60" width="160" height="100" rx="12" fill="#3b82f6" opacity="0.9"/>
    <text x="320" y="120" text-anchor="middle" fill="white" font-family="system-ui" font-size="18" font-weight="700">CRM</text>
    <text x="320" y="145" text-anchor="middle" fill="white" font-family="system-ui" font-size="14" opacity="0.8">Add Lead</text>

    <path d="M400 110 L460 110" stroke="#3b82f6" stroke-width="3" stroke-dasharray="8 4"/>
    <circle cx="460" cy="110" r="8" fill="#3b82f6"/>

    <rect x="480" y="60" width="160" height="100" rx="12" fill="#10b981" opacity="0.9"/>
    <text x="560" y="120" text-anchor="middle" fill="white" font-family="system-ui" font-size="18" font-weight="700">SMS</text>
    <text x="560" y="145" text-anchor="middle" fill="white" font-family="system-ui" font-size="14" opacity="0.8">Send Text</text>

    <path d="M640 110 L700 110" stroke="#10b981" stroke-width="3" stroke-dasharray="8 4"/>
    <circle cx="700" cy="110" r="8" fill="#10b981"/>

    <rect x="720" y="60" width="160" height="100" rx="12" fill="#8b5cf6" opacity="0.9"/>
    <text x="800" y="120" text-anchor="middle" fill="white" font-family="system-ui" font-size="18" font-weight="700">Slack</text>
    <text x="800" y="145" text-anchor="middle" fill="white" font-family="system-ui" font-size="14" opacity="0.8">Notify Team</text>
  </g>

  <g transform="translate(200, 280)">
    <rect x="0" y="0" width="800" height="180" rx="20" fill="#1e293b" stroke="#334155" stroke-width="2"/>

    <text x="40" y="50" fill="#10b981" font-family="system-ui" font-size="16" font-weight="700">TIME SAVED PER WEEK</text>

    <text x="40" y="110" fill="white" font-family="system-ui" font-size="64" font-weight="700">10+</text>
    <text x="170" y="110" fill="#94a3b8" font-family="system-ui" font-size="32" font-weight="500">hours</text>

    <rect x="400" y="30" width="2" height="120" fill="#334155"/>

    <text x="440" y="60" fill="#94a3b8" font-family="system-ui" font-size="14">No more copy-pasting</text>
    <text x="440" y="90" fill="#94a3b8" font-family="system-ui" font-size="14">No more manual follow-ups</text>
    <text x="440" y="120" fill="#94a3b8" font-family="system-ui" font-size="14">No more missed leads</text>
  </g>

  <text x="100" y="520" fill="white" font-family="system-ui" font-size="36" font-weight="700">5 Zapier Automations That Save 10+ Hours</text>
  <text x="100" y="560" fill="#94a3b8" font-family="system-ui" font-size="20">Copy-paste ready workflows for your business</text>

  <defs>
    <radialGradient id="grad1" cx="0.5" cy="0.5" r="0.5">
      <stop offset="0%" stop-color="#ff6b35"/>
      <stop offset="100%" stop-color="#ff6b35" stop-opacity="0"/>
    </radialGradient>
    <radialGradient id="grad2" cx="0.5" cy="0.5" r="0.5">
      <stop offset="0%" stop-color="#10b981"/>
      <stop offset="100%" stop-color="#10b981" stop-opacity="0"/>
    </radialGradient>
  </defs>
</svg>
